<svg width="120" height="209" viewBox="0 0 120 209" fill="none" xmlns="http://www.w3.org/2000/svg">
<path d="M60.326 208.097C27.1176 208.242 0.0722656 181.414 0.0722656 148.278C0.0722656 134.792 4.64024 121.741 12.9786 111.155L15.0088 108.834C15.2263 108.617 15.5164 108.327 15.7339 108.109L74.8275 42.5625C84.1085 50.9009 84.9061 65.1849 76.5677 74.3933L31.9756 123.843C26.03 130.587 22.7671 139.288 22.7671 148.278C22.7671 168.943 39.8064 185.837 60.6161 185.475C81.0632 185.112 97.3774 168.146 97.3774 147.698V132.182C97.3774 119.711 107.456 109.632 120 109.632V147.553C119.927 180.689 93.3895 207.952 60.326 208.097Z" fill="url(#paint0_linear_356_16)"/>
<path d="M107.021 96.8707V97.0157L45.3172 165.463C36.0363 157.124 35.2387 142.84 43.577 133.632L88.1692 84.1818C94.1148 77.4386 97.3776 68.6652 97.3776 59.7468C97.3776 39.0822 80.3384 22.1879 59.5287 22.5504C38.9365 22.8405 22.6224 39.8797 22.6224 60.3269V75.8435C22.6224 88.3148 12.5438 98.3933 0 98.3933V60.4719C0.0725075 27.4809 26.6103 0.1456 59.6012 0.00058514C92.8097 -0.14443 119.855 26.6834 119.855 59.8193C119.927 73.3057 115.36 86.3571 107.021 96.8707Z" fill="url(#paint1_linear_356_16)"/>
<defs>
<linearGradient id="paint0_linear_356_16" x1="60.036" y1="42.5625" x2="60.036" y2="208.098" gradientUnits="userSpaceOnUse">
<stop stop-color="#0057FF"/>
<stop offset="1" stop-color="#1B69FF"/>
</linearGradient>
<linearGradient id="paint1_linear_356_16" x1="59.9279" y1="0" x2="59.9279" y2="165.463" gradientUnits="userSpaceOnUse">
<stop stop-color="#0057FF"/>
<stop offset="1" stop-color="#1B69FF"/>
</linearGradient>
</defs>
</svg>
