<svg width="632" height="315" viewBox="0 0 632 315" fill="none" xmlns="http://www.w3.org/2000/svg">
<path d="M30.68 124.8L33.76 110.8H79.26L82.48 124.8H30.68ZM56.3 79.72L40.9 115.7L40.62 119.34L27.04 150H8.42L56.3 46.54L104.18 150H85.56L72.26 120.18L71.84 116.12L56.3 79.72ZM164.962 112.76V98.76H212.142C212.329 105.947 211.395 112.76 209.342 119.2C207.289 125.547 204.209 131.193 200.102 136.14C195.995 141.087 190.862 145.007 184.702 147.9C178.635 150.7 171.729 152.1 163.982 152.1C156.609 152.1 149.795 150.887 143.542 148.46C137.289 145.94 131.829 142.393 127.162 137.82C122.589 133.247 119.042 127.833 116.522 121.58C114.002 115.327 112.742 108.467 112.742 101C112.742 93.5333 114.002 86.72 116.522 80.56C119.135 74.3067 122.729 68.94 127.302 64.46C131.969 59.8867 137.429 56.3867 143.682 53.96C150.029 51.5333 156.889 50.32 164.262 50.32C170.702 50.32 176.535 51.2067 181.762 52.98C186.989 54.66 191.655 57.1333 195.762 60.4C199.962 63.5733 203.509 67.4467 206.402 72.02L192.962 80.98C190.255 76.3133 186.475 72.58 181.622 69.78C176.862 66.98 171.075 65.58 164.262 65.58C157.915 65.58 152.175 67.0733 147.042 70.06C141.909 72.9533 137.802 77.06 134.722 82.38C131.642 87.6067 130.102 93.8133 130.102 101C130.102 108.093 131.595 114.347 134.582 119.76C137.662 125.08 141.769 129.233 146.902 132.22C152.035 135.207 157.822 136.7 164.262 136.7C168.649 136.7 172.569 136.093 176.022 134.88C179.475 133.667 182.462 131.94 184.982 129.7C187.502 127.46 189.602 124.893 191.282 122C192.962 119.107 194.222 116.027 195.062 112.76H164.962ZM246.304 150V135.44H295.724V150H246.304ZM246.304 66.56V52H295.724V66.56H246.304ZM246.304 104.64V90.36H292.924V104.64H246.304ZM236.084 52H252.324V150H236.084V52ZM394.605 52H410.845V154.9L339.305 84.2V150H323.065V47.1L394.605 117.8V52ZM439.576 52H456.376V150H439.576V52ZM471.216 150H449.796V134.46H470.796C475.65 134.46 480.13 133.76 484.236 132.36C488.343 130.96 491.89 128.86 494.876 126.06C497.956 123.26 500.336 119.76 502.016 115.56C503.79 111.36 504.676 106.507 504.676 101C504.676 95.4933 503.79 90.64 502.016 86.44C500.336 82.24 497.956 78.74 494.876 75.94C491.89 73.14 488.343 71.04 484.236 69.64C480.13 68.24 475.65 67.54 470.796 67.54H449.796V52H471.216C481.203 52 489.976 54.0533 497.536 58.16C505.096 62.1733 510.976 67.8667 515.176 75.24C519.47 82.52 521.616 91.1067 521.616 101C521.616 110.893 519.47 119.527 515.176 126.9C510.976 134.18 505.096 139.873 497.536 143.98C489.976 147.993 481.203 150 471.216 150ZM552.262 124.8L555.342 110.8H600.842L604.062 124.8H552.262ZM577.882 79.72L562.482 115.7L562.202 119.34L548.622 150H530.002L577.882 46.54L625.762 150H607.142L593.842 120.18L593.422 116.12L577.882 79.72Z" fill="#1A68FE"/>
<path d="M11.2 165H23.1V263H11.2V165ZM40.6 263H17.78V251.1H40.6C46.1067 251.1 51.1467 250.26 55.72 248.58C60.2933 246.807 64.2133 244.333 67.48 241.16C70.7467 237.893 73.2667 233.973 75.04 229.4C76.8133 224.827 77.7 219.693 77.7 214C77.7 208.307 76.8133 203.173 75.04 198.6C73.2667 194.027 70.7467 190.153 67.48 186.98C64.2133 183.713 60.2933 181.24 55.72 179.56C51.1467 177.787 46.1067 176.9 40.6 176.9H17.78V165H40.6C50.12 165 58.5667 167.053 65.94 171.16C73.3133 175.267 79.1 181.007 83.3 188.38C87.5 195.66 89.6 204.2 89.6 214C89.6 223.8 87.5 232.387 83.3 239.76C79.1 247.04 73.3133 252.733 65.94 256.84C58.5667 260.947 50.12 263 40.6 263ZM131.556 214C131.556 221.373 133.143 227.953 136.316 233.74C139.583 239.527 144.016 244.1 149.616 247.46C155.216 250.82 161.563 252.5 168.656 252.5C175.843 252.5 182.19 250.82 187.696 247.46C193.296 244.1 197.683 239.527 200.856 233.74C204.123 227.953 205.756 221.373 205.756 214C205.756 206.627 204.123 200.047 200.856 194.26C197.683 188.473 193.296 183.9 187.696 180.54C182.19 177.18 175.843 175.5 168.656 175.5C161.563 175.5 155.216 177.18 149.616 180.54C144.016 183.9 139.583 188.473 136.316 194.26C133.143 200.047 131.556 206.627 131.556 214ZM118.956 214C118.956 206.813 120.17 200.187 122.596 194.12C125.116 187.96 128.616 182.64 133.096 178.16C137.576 173.587 142.85 170.04 148.916 167.52C154.983 164.907 161.563 163.6 168.656 163.6C175.843 163.6 182.423 164.907 188.396 167.52C194.463 170.04 199.736 173.587 204.216 178.16C208.696 182.64 212.15 187.96 214.576 194.12C217.096 200.187 218.356 206.813 218.356 214C218.356 221.093 217.096 227.72 214.576 233.88C212.15 240.04 208.696 245.407 204.216 249.98C199.736 254.46 194.463 258.007 188.396 260.62C182.423 263.14 175.843 264.4 168.656 264.4C161.563 264.4 154.983 263.14 148.916 260.62C142.85 258.007 137.576 254.46 133.096 249.98C128.616 245.407 125.116 240.04 122.596 233.88C120.17 227.72 118.956 221.093 118.956 214ZM252.662 165H264.562V230.8C264.562 237.52 266.382 242.933 270.022 247.04C273.662 251.147 278.982 253.2 285.982 253.2C292.982 253.2 298.302 251.147 301.942 247.04C305.582 242.933 307.402 237.52 307.402 230.8V165H319.302V230.8C319.302 235.653 318.508 240.133 316.922 244.24C315.428 248.347 313.188 251.893 310.202 254.88C307.308 257.867 303.808 260.2 299.702 261.88C295.595 263.56 291.022 264.4 285.982 264.4C280.942 264.4 276.368 263.56 272.262 261.88C268.155 260.2 264.608 257.867 261.622 254.88C258.728 251.893 256.488 248.347 254.902 244.24C253.408 240.133 252.662 235.653 252.662 230.8V165ZM349.398 176.2V165H411.698V176.2H386.498V263H374.598V176.2H349.398ZM442.504 214C442.504 221.373 444.091 227.953 447.264 233.74C450.531 239.527 454.964 244.1 460.564 247.46C466.164 250.82 472.511 252.5 479.604 252.5C486.791 252.5 493.137 250.82 498.644 247.46C504.244 244.1 508.631 239.527 511.804 233.74C515.071 227.953 516.704 221.373 516.704 214C516.704 206.627 515.071 200.047 511.804 194.26C508.631 188.473 504.244 183.9 498.644 180.54C493.137 177.18 486.791 175.5 479.604 175.5C472.511 175.5 466.164 177.18 460.564 180.54C454.964 183.9 450.531 188.473 447.264 194.26C444.091 200.047 442.504 206.627 442.504 214ZM429.904 214C429.904 206.813 431.117 200.187 433.544 194.12C436.064 187.96 439.564 182.64 444.044 178.16C448.524 173.587 453.797 170.04 459.864 167.52C465.931 164.907 472.511 163.6 479.604 163.6C486.791 163.6 493.371 164.907 499.344 167.52C505.411 170.04 510.684 173.587 515.164 178.16C519.644 182.64 523.097 187.96 525.524 194.12C528.044 200.187 529.304 206.813 529.304 214C529.304 221.093 528.044 227.72 525.524 233.88C523.097 240.04 519.644 245.407 515.164 249.98C510.684 254.46 505.411 258.007 499.344 260.62C493.371 263.14 486.791 264.4 479.604 264.4C472.511 264.4 465.931 263.14 459.864 260.62C453.797 258.007 448.524 254.46 444.044 249.98C439.564 245.407 436.064 240.04 433.544 233.88C431.117 227.72 429.904 221.093 429.904 214ZM581.809 214.7H595.109L630.109 263H615.409L581.809 214.7ZM564.309 165H576.209V263H564.309V165ZM570.889 175.5V165H590.909C597.256 165 602.903 166.213 607.849 168.64C612.889 170.973 616.856 174.333 619.749 178.72C622.736 183.107 624.229 188.333 624.229 194.4C624.229 200.373 622.736 205.6 619.749 210.08C616.856 214.467 612.889 217.873 607.849 220.3C602.903 222.633 597.256 223.8 590.909 223.8H570.889V213.3H590.909C595.109 213.3 598.796 212.553 601.969 211.06C605.236 209.567 607.756 207.42 609.529 204.62C611.396 201.82 612.329 198.413 612.329 194.4C612.329 190.387 611.396 186.98 609.529 184.18C607.756 181.38 605.236 179.233 601.969 177.74C598.796 176.247 595.109 175.5 590.909 175.5H570.889Z" fill="#1C2035"/>
</svg>
