<svg width="781" height="315" viewBox="0 0 781 315" fill="none" xmlns="http://www.w3.org/2000/svg">
<path d="M60.326 263.097C27.1176 263.242 0.0722656 236.414 0.0722656 203.278C0.0722656 189.792 4.64024 176.741 12.9786 166.155L15.0088 163.834C15.2263 163.617 15.5164 163.327 15.7339 163.109L74.8275 97.5625C84.1085 105.901 84.9061 120.185 76.5677 129.393L31.9756 178.843C26.03 185.587 22.7671 194.288 22.7671 203.278C22.7671 223.943 39.8064 240.837 60.6161 240.475C81.0632 240.112 97.3774 223.146 97.3774 202.698V187.182C97.3774 174.711 107.456 164.632 120 164.632V202.553C119.927 235.689 93.3895 262.952 60.326 263.097Z" fill="url(#paint0_linear_356_15)"/>
<path d="M107.021 151.871V152.016L45.3172 220.463C36.0363 212.124 35.2387 197.84 43.577 188.632L88.1692 139.182C94.1148 132.439 97.3776 123.665 97.3776 114.747C97.3776 94.0822 80.3384 77.1879 59.5287 77.5504C38.9365 77.8405 22.6224 94.8797 22.6224 115.327V130.843C22.6224 143.315 12.5438 153.393 0 153.393V115.472C0.0725075 82.4809 26.6103 55.1456 59.6012 55.0006C92.8097 54.8556 119.855 81.6834 119.855 114.819C119.927 128.306 115.36 141.357 107.021 151.871Z" fill="url(#paint1_linear_356_15)"/>
<path d="M179.68 124.8L182.76 110.8H228.26L231.48 124.8H179.68ZM205.3 79.72L189.9 115.7L189.62 119.34L176.04 150H157.42L205.3 46.54L253.18 150H234.56L221.26 120.18L220.84 116.12L205.3 79.72ZM313.962 112.76V98.76H361.142C361.329 105.947 360.395 112.76 358.342 119.2C356.289 125.547 353.209 131.193 349.102 136.14C344.995 141.087 339.862 145.007 333.702 147.9C327.635 150.7 320.729 152.1 312.982 152.1C305.609 152.1 298.795 150.887 292.542 148.46C286.289 145.94 280.829 142.393 276.162 137.82C271.589 133.247 268.042 127.833 265.522 121.58C263.002 115.327 261.742 108.467 261.742 101C261.742 93.5333 263.002 86.72 265.522 80.56C268.135 74.3067 271.729 68.94 276.302 64.46C280.969 59.8867 286.429 56.3867 292.682 53.96C299.029 51.5333 305.889 50.32 313.262 50.32C319.702 50.32 325.535 51.2067 330.762 52.98C335.989 54.66 340.655 57.1333 344.762 60.4C348.962 63.5733 352.509 67.4467 355.402 72.02L341.962 80.98C339.255 76.3133 335.475 72.58 330.622 69.78C325.862 66.98 320.075 65.58 313.262 65.58C306.915 65.58 301.175 67.0733 296.042 70.06C290.909 72.9533 286.802 77.06 283.722 82.38C280.642 87.6067 279.102 93.8133 279.102 101C279.102 108.093 280.595 114.347 283.582 119.76C286.662 125.08 290.769 129.233 295.902 132.22C301.035 135.207 306.822 136.7 313.262 136.7C317.649 136.7 321.569 136.093 325.022 134.88C328.475 133.667 331.462 131.94 333.982 129.7C336.502 127.46 338.602 124.893 340.282 122C341.962 119.107 343.222 116.027 344.062 112.76H313.962ZM395.304 150V135.44H444.724V150H395.304ZM395.304 66.56V52H444.724V66.56H395.304ZM395.304 104.64V90.36H441.924V104.64H395.304ZM385.084 52H401.324V150H385.084V52ZM543.605 52H559.845V154.9L488.305 84.2V150H472.065V47.1L543.605 117.8V52ZM588.576 52H605.376V150H588.576V52ZM620.216 150H598.796V134.46H619.796C624.65 134.46 629.13 133.76 633.236 132.36C637.343 130.96 640.89 128.86 643.876 126.06C646.956 123.26 649.336 119.76 651.016 115.56C652.79 111.36 653.676 106.507 653.676 101C653.676 95.4933 652.79 90.64 651.016 86.44C649.336 82.24 646.956 78.74 643.876 75.94C640.89 73.14 637.343 71.04 633.236 69.64C629.13 68.24 624.65 67.54 619.796 67.54H598.796V52H620.216C630.203 52 638.976 54.0533 646.536 58.16C654.096 62.1733 659.976 67.8667 664.176 75.24C668.47 82.52 670.616 91.1067 670.616 101C670.616 110.893 668.47 119.527 664.176 126.9C659.976 134.18 654.096 139.873 646.536 143.98C638.976 147.993 630.203 150 620.216 150ZM701.262 124.8L704.342 110.8H749.842L753.062 124.8H701.262ZM726.882 79.72L711.482 115.7L711.202 119.34L697.622 150H679.002L726.882 46.54L774.762 150H756.142L742.842 120.18L742.422 116.12L726.882 79.72Z" fill="#1A68FE"/>
<path d="M160.2 165H172.1V263H160.2V165ZM189.6 263H166.78V251.1H189.6C195.107 251.1 200.147 250.26 204.72 248.58C209.293 246.807 213.213 244.333 216.48 241.16C219.747 237.893 222.267 233.973 224.04 229.4C225.813 224.827 226.7 219.693 226.7 214C226.7 208.307 225.813 203.173 224.04 198.6C222.267 194.027 219.747 190.153 216.48 186.98C213.213 183.713 209.293 181.24 204.72 179.56C200.147 177.787 195.107 176.9 189.6 176.9H166.78V165H189.6C199.12 165 207.567 167.053 214.94 171.16C222.313 175.267 228.1 181.007 232.3 188.38C236.5 195.66 238.6 204.2 238.6 214C238.6 223.8 236.5 232.387 232.3 239.76C228.1 247.04 222.313 252.733 214.94 256.84C207.567 260.947 199.12 263 189.6 263ZM280.556 214C280.556 221.373 282.143 227.953 285.316 233.74C288.583 239.527 293.016 244.1 298.616 247.46C304.216 250.82 310.563 252.5 317.656 252.5C324.843 252.5 331.19 250.82 336.696 247.46C342.296 244.1 346.683 239.527 349.856 233.74C353.123 227.953 354.756 221.373 354.756 214C354.756 206.627 353.123 200.047 349.856 194.26C346.683 188.473 342.296 183.9 336.696 180.54C331.19 177.18 324.843 175.5 317.656 175.5C310.563 175.5 304.216 177.18 298.616 180.54C293.016 183.9 288.583 188.473 285.316 194.26C282.143 200.047 280.556 206.627 280.556 214ZM267.956 214C267.956 206.813 269.17 200.187 271.596 194.12C274.116 187.96 277.616 182.64 282.096 178.16C286.576 173.587 291.85 170.04 297.916 167.52C303.983 164.907 310.563 163.6 317.656 163.6C324.843 163.6 331.423 164.907 337.396 167.52C343.463 170.04 348.736 173.587 353.216 178.16C357.696 182.64 361.15 187.96 363.576 194.12C366.096 200.187 367.356 206.813 367.356 214C367.356 221.093 366.096 227.72 363.576 233.88C361.15 240.04 357.696 245.407 353.216 249.98C348.736 254.46 343.463 258.007 337.396 260.62C331.423 263.14 324.843 264.4 317.656 264.4C310.563 264.4 303.983 263.14 297.916 260.62C291.85 258.007 286.576 254.46 282.096 249.98C277.616 245.407 274.116 240.04 271.596 233.88C269.17 227.72 267.956 221.093 267.956 214ZM401.662 165H413.562V230.8C413.562 237.52 415.382 242.933 419.022 247.04C422.662 251.147 427.982 253.2 434.982 253.2C441.982 253.2 447.302 251.147 450.942 247.04C454.582 242.933 456.402 237.52 456.402 230.8V165H468.302V230.8C468.302 235.653 467.508 240.133 465.922 244.24C464.428 248.347 462.188 251.893 459.202 254.88C456.308 257.867 452.808 260.2 448.702 261.88C444.595 263.56 440.022 264.4 434.982 264.4C429.942 264.4 425.368 263.56 421.262 261.88C417.155 260.2 413.608 257.867 410.622 254.88C407.728 251.893 405.488 248.347 403.902 244.24C402.408 240.133 401.662 235.653 401.662 230.8V165ZM498.398 176.2V165H560.698V176.2H535.498V263H523.598V176.2H498.398ZM591.504 214C591.504 221.373 593.091 227.953 596.264 233.74C599.531 239.527 603.964 244.1 609.564 247.46C615.164 250.82 621.511 252.5 628.604 252.5C635.791 252.5 642.137 250.82 647.644 247.46C653.244 244.1 657.631 239.527 660.804 233.74C664.071 227.953 665.704 221.373 665.704 214C665.704 206.627 664.071 200.047 660.804 194.26C657.631 188.473 653.244 183.9 647.644 180.54C642.137 177.18 635.791 175.5 628.604 175.5C621.511 175.5 615.164 177.18 609.564 180.54C603.964 183.9 599.531 188.473 596.264 194.26C593.091 200.047 591.504 206.627 591.504 214ZM578.904 214C578.904 206.813 580.117 200.187 582.544 194.12C585.064 187.96 588.564 182.64 593.044 178.16C597.524 173.587 602.797 170.04 608.864 167.52C614.931 164.907 621.511 163.6 628.604 163.6C635.791 163.6 642.371 164.907 648.344 167.52C654.411 170.04 659.684 173.587 664.164 178.16C668.644 182.64 672.097 187.96 674.524 194.12C677.044 200.187 678.304 206.813 678.304 214C678.304 221.093 677.044 227.72 674.524 233.88C672.097 240.04 668.644 245.407 664.164 249.98C659.684 254.46 654.411 258.007 648.344 260.62C642.371 263.14 635.791 264.4 628.604 264.4C621.511 264.4 614.931 263.14 608.864 260.62C602.797 258.007 597.524 254.46 593.044 249.98C588.564 245.407 585.064 240.04 582.544 233.88C580.117 227.72 578.904 221.093 578.904 214ZM730.809 214.7H744.109L779.109 263H764.409L730.809 214.7ZM713.309 165H725.209V263H713.309V165ZM719.889 175.5V165H739.909C746.256 165 751.903 166.213 756.849 168.64C761.889 170.973 765.856 174.333 768.749 178.72C771.736 183.107 773.229 188.333 773.229 194.4C773.229 200.373 771.736 205.6 768.749 210.08C765.856 214.467 761.889 217.873 756.849 220.3C751.903 222.633 746.256 223.8 739.909 223.8H719.889V213.3H739.909C744.109 213.3 747.796 212.553 750.969 211.06C754.236 209.567 756.756 207.42 758.529 204.62C760.396 201.82 761.329 198.413 761.329 194.4C761.329 190.387 760.396 186.98 758.529 184.18C756.756 181.38 754.236 179.233 750.969 177.74C747.796 176.247 744.109 175.5 739.909 175.5H719.889Z" fill="white"/>
<defs>
<linearGradient id="paint0_linear_356_15" x1="60.036" y1="97.5625" x2="60.036" y2="263.098" gradientUnits="userSpaceOnUse">
<stop stop-color="#0057FF"/>
<stop offset="1" stop-color="#1B69FF"/>
</linearGradient>
<linearGradient id="paint1_linear_356_15" x1="59.9279" y1="55" x2="59.9279" y2="220.463" gradientUnits="userSpaceOnUse">
<stop stop-color="#0057FF"/>
<stop offset="1" stop-color="#1B69FF"/>
</linearGradient>
</defs>
</svg>
